<?xml version="1.0" encoding="utf-8"?>
<!-- Generator: Adobe Illustrator 26.0.3, SVG Export Plug-In . SVG Version: 6.00 Build 0)  -->
<svg version="1.1" id="Layer_1" xmlns="http://www.w3.org/2000/svg" xmlns:xlink="http://www.w3.org/1999/xlink" x="0px" y="0px"
	 viewBox="0 0 120 50" style="enable-background:new 0 0 120 50;" xml:space="preserve">
<style type="text/css">
	.st0{fill:#183E6B;}
	.st1{fill:#F29813;}
</style>
<g>
	<path class="st0" d="M33.4,25.98c2.34,0,4.68,0,7.11,0c0,0.59,0,1.12,0,1.75c-1.73,0-3.44,0-5.22,0c0,1.27,0,2.44,0,3.74
		c1.3,0,2.64,0,4.06,0c0,0.63,0,1.13,0,1.77c-1.32,0-2.66,0-4.06,0c0,1.43,0,2.73,0,4.17c1.78,0,3.54,0,5.36,0c0,0.65,0,1.16,0,1.87
		c-2.45,0-4.85,0-7.25,0C33.4,34.84,33.4,30.41,33.4,25.98z"/>
	<path class="st1" d="M15.12,38.96c0-4.2,0-8.29,0-12.56c-1.59,0.52-3.06,0.97-4.5,1.51c-0.2,0.08-0.33,0.59-0.33,0.91
		c-0.02,3.01-0.01,6.02-0.01,9.02c0,0.35,0,0.71,0,1.12c-3.38,0-6.63,0-9.95,0c0-9.71,0-19.37,0-29.08c5.75,0,11.44,0,17.23,0
		c0,4.98,0,9.89,0,14.95c0.43-0.14,0.73-0.22,1.03-0.33c2.07-0.77,4.14-1.58,6.22-2.31c0.66-0.23,0.91-0.55,0.9-1.27
		c-0.04-3.3-0.02-6.61-0.02-9.92c0-0.35,0-0.71,0-1.13c1.12,0,2.13,0,3.26,0c0.02,0.36,0.05,0.71,0.05,1.05
		c0,8.99-0.01,17.98,0.02,26.97c0,0.83-0.15,1.15-1.07,1.14c-3.93-0.05-7.86-0.02-11.79-0.03C15.85,39.02,15.56,38.99,15.12,38.96z
		 M9.77,12.52c-1.83,0.88-3.53,1.73-5.26,2.51c-0.63,0.28-0.86,0.63-0.86,1.34c0.03,4.29,0.02,8.59,0.02,12.88
		c0,0.28,0.04,0.56,0.06,0.98c1.81-0.71,3.51-1.42,5.24-2.03c0.69-0.24,0.87-0.6,0.86-1.3c-0.03-4.46-0.01-8.92-0.02-13.37
		C9.82,13.24,9.79,12.96,9.77,12.52z"/>
	<path class="st0" d="M33.35,23.76c0-4.35,0-8.69,0-13.04c1.94,0,3.82-0.09,5.69,0.03c1.24,0.08,1.99,0.97,2.28,2.18
		c0.3,1.29,0.24,2.51-0.88,3.43c-0.2,0.16-0.42,0.3-0.72,0.51c1.79,0.85,2.37,2.27,2.06,4.08c-0.26,1.56-1.33,2.67-2.93,2.78
		C37.04,23.85,35.23,23.76,33.35,23.76z M35.51,17.81c0,1.48,0,2.84,0,4.29c1.38-0.14,2.86,0.43,3.79-0.97
		c0.52-0.79,0.48-1.75-0.11-2.51C38.2,17.36,36.8,17.93,35.51,17.81z M35.48,16.12c1.23-0.14,2.64,0.43,3.38-0.84
		c0.33-0.57,0.3-1.75-0.09-2.27c-0.8-1.09-2.12-0.6-3.29-0.67C35.48,13.65,35.48,14.82,35.48,16.12z"/>
	<path class="st0" d="M56.28,29.51c0.71-1.64,1.02-1.84,2.45-1.57c0,0.4,0,0.82,0,1.23c-1.49,0.39-1.56,0.55-0.97,2
		c0.98,2.37-0.79,4.63-3.47,4.41c-0.64-0.05-1.5-0.35-1.59,0.6c-0.09,1.04,0.89,0.83,1.53,0.91c0.85,0.1,1.72,0.1,2.56,0.23
		c1.21,0.18,1.84,0.79,2.06,1.84c0.25,1.16-0.12,2.31-1.11,2.85c-1.97,1.09-4.07,1.16-6.09,0.19c-1.56-0.74-1.48-2.55,0.05-3.75
		c-1.22-1.5-1.16-2.05,0.43-3.6c-1.22-1.47-1.42-2.93-0.57-4.23C52.44,29.29,54.1,28.88,56.28,29.51z M54.59,38.83
		c0-0.01,0-0.02,0-0.02c-0.36,0-0.78-0.12-1.07,0.03c-0.42,0.21-0.97,0.56-1.04,0.94c-0.08,0.39,0.23,1.11,0.57,1.27
		c1.07,0.53,2.26,0.53,3.33-0.02c0.33-0.17,0.61-0.8,0.58-1.19c-0.03-0.32-0.52-0.71-0.89-0.85C55.62,38.81,55.09,38.87,54.59,38.83
		z M53.03,32.41c0.25,0.58,0.35,1.18,0.7,1.55c0.51,0.55,1.2,0.49,1.75-0.05c0.61-0.6,0.63-2.32,0.04-2.95
		c-0.53-0.57-1.22-0.65-1.74-0.11C53.4,31.22,53.28,31.85,53.03,32.41z"/>
	<path class="st0" d="M117.52,27.93c0,0.4,0,0.82,0,1.23c-1.5,0.4-1.57,0.56-0.97,1.99c0.99,2.37-0.77,4.64-3.44,4.43
		c-0.63-0.05-1.5-0.38-1.59,0.59c-0.1,1.05,0.89,0.83,1.52,0.91c0.85,0.1,1.72,0.1,2.56,0.23c1.2,0.18,1.87,0.82,2.06,1.84
		c0.23,1.23-0.17,2.37-1.21,2.91c-1.93,1-3.96,1.07-5.92,0.17c-1.6-0.73-1.57-2.49-0.02-3.82c-1.21-1.42-1.13-2.1,0.46-3.58
		c-1.3-1.23-1.52-2.73-0.58-4.19c1.13-1.76,2.9-1.69,4.67-1.16C115.82,27.87,116.1,27.69,117.52,27.93z M113.41,38.84
		c0,0.01,0,0.01,0,0.02c-0.33-0.01-0.71-0.14-0.98-0.02c-0.45,0.22-1.08,0.54-1.16,0.92c-0.09,0.39,0.33,1.26,0.63,1.3
		c1.04,0.16,2.13,0.15,3.18,0c0.3-0.04,0.7-0.8,0.67-1.21c-0.02-0.33-0.58-0.72-0.97-0.89C114.37,38.8,113.87,38.87,113.41,38.84z
		 M114.73,32.46c-0.04-0.78-0.08-1.63-0.98-1.83c-0.41-0.1-1.05,0.12-1.38,0.43c-0.57,0.53-0.6,2.1-0.05,2.67
		c0.31,0.32,0.93,0.58,1.35,0.51C114.59,34.07,114.69,33.24,114.73,32.46z"/>
	<path class="st0" d="M67.99,14.18c-0.71,0.95-1.32,1.81-1.99,2.63c-0.36,0.44-0.4,0.81-0.16,1.34c0.84,1.82,1.63,3.67,2.51,5.68
		c-0.52,0-0.9-0.04-1.28,0.01c-0.66,0.08-1.01-0.15-1.24-0.81c-0.45-1.31-1.01-2.58-1.53-3.88c-1.81,1.11-1.31,2.92-1.4,4.59
		c-0.66,0-1.26,0-1.93,0c0-4.32,0-8.64,0-13.04c0.6,0,1.21,0,1.91,0c0,2.44,0,4.87,0,7.3c0.08,0.04,0.16,0.07,0.24,0.11
		c0.72-0.99,1.52-1.93,2.14-2.98C65.9,14.06,66.74,13.89,67.99,14.18z"/>
	<path class="st0" d="M48.84,17.76c-0.04-1.01,0.13-1.98-0.99-2.36c-0.87-0.3-1.5,0.12-2.13,1.41c-0.54-0.06-1.12-0.13-1.82-0.22
		c0.09-0.33,0.13-0.61,0.24-0.86c0.64-1.45,2.4-2.18,4.32-1.81c1.62,0.31,2.36,1.21,2.38,3.02c0.03,2.24,0.01,4.49,0.01,6.82
		c-0.47,0-1.05,0-1.69,0c-0.07-0.35-0.14-0.72-0.2-1c-0.64,0.41-1.24,0.98-1.94,1.2c-1.44,0.46-2.8-0.22-3.29-1.46
		c-0.58-1.47-0.05-3.32,1.27-3.98c0.72-0.36,1.56-0.48,2.36-0.65C47.81,17.76,48.28,17.79,48.84,17.76z M48.95,19.26
		c-0.09-0.11-0.18-0.22-0.27-0.33c-0.74,0.17-1.53,0.23-2.2,0.55c-0.86,0.41-1.01,1.31-0.74,2.13c0.13,0.4,0.66,0.84,1.08,0.93
		c0.81,0.16,1.38-0.39,1.64-1.12C48.7,20.73,48.79,19.98,48.95,19.26z"/>
	<path class="st0" d="M102.89,39.14c-0.76,0-1.33,0-1.97,0c0-3.22,0-6.37,0-9.63c0.55,0,1.12,0,1.74,0
		c0.05,0.27,0.11,0.55,0.19,1.01c0.67-1.01,1.53-1.44,2.63-1.33c1.12,0.12,2.01,0.74,2.05,1.81c0.1,2.69,0.03,5.39,0.03,8.14
		c-0.58,0-1.16,0-1.86,0c-0.02-0.35-0.05-0.7-0.05-1.05c-0.01-1.98-0.01-3.96-0.03-5.94c-0.01-0.63-0.15-1.21-0.92-1.31
		c-0.75-0.1-1.33,0.21-1.54,0.94c-0.17,0.59-0.25,1.23-0.26,1.85C102.87,35.44,102.89,37.25,102.89,39.14z"/>
	<path class="st0" d="M89.6,34.63c-2.13,0-3.87,0-5.84,0c0.19,0.88,0.22,1.69,0.53,2.37c0.54,1.15,2.1,1.21,2.76,0.19
		c0.74-1.13,0.74-1.13,2.08-0.81c-0.05,1.36-0.94,2.51-2.24,2.89c-1.64,0.47-3.29-0.03-4.17-1.27c-1.32-1.85-1.22-5.74,0.2-7.52
		c1.57-1.96,4.73-1.71,5.78,0.56C89.18,32.08,89.28,33.29,89.6,34.63z M87.3,33.21c0.02-0.99-0.07-1.88-0.94-2.31
		c-0.4-0.19-1.08-0.18-1.47,0.04c-0.81,0.47-0.94,1.33-0.92,2.26C85.11,33.21,86.15,33.21,87.3,33.21z"/>
	<path class="st0" d="M78.8,36.09c0.56,0.09,1.08,0.16,1.59,0.24c-0.18,1.57-1.06,2.63-2.43,2.97c-1.65,0.41-3.2-0.11-4.05-1.35
		c-1.27-1.85-1.16-5.68,0.21-7.44c1.58-2.01,4.78-1.74,5.83,0.59c0.46,1.01,0.56,2.19,0.88,3.52c-1.17,0-2.04,0-2.92,0
		c-0.89,0-1.78,0-2.64,0c-0.4,1.43,0.11,2.82,1.13,3.18C77.42,38.16,78,37.76,78.8,36.09z M75.24,33.17c1.13,0,2.19,0,3.24,0
		c0.03-1.61-0.52-2.45-1.57-2.47C75.84,30.67,75.22,31.57,75.24,33.17z"/>
	<path class="st0" d="M75.64,14.83c0.77-0.35,1.47-0.85,2.21-0.95c1.53-0.2,2.48,0.6,2.62,2.15c0.12,1.34,0.07,2.71,0.08,4.06
		c0.01,1.19,0,2.37,0,3.65c-0.66,0-1.27,0-2.03,0c0-0.7,0.01-1.41,0-2.12c-0.01-1.65,0.02-3.31-0.09-4.95
		c-0.03-0.41-0.45-0.99-0.83-1.14c-0.63-0.25-1.28,0.08-1.52,0.75c-0.19,0.55-0.29,1.15-0.3,1.74c-0.04,1.88-0.01,3.76-0.01,5.72
		c-0.68,0-1.28,0-1.96,0c0-3.17,0-6.35,0-9.61c0.56,0,1.1,0,1.72,0C75.59,14.42,75.63,14.73,75.64,14.83z"/>
	<path class="st0" d="M66.18,29.5c0.05,0.32,0.1,0.6,0.17,1.03c0.75-1.1,1.7-1.51,2.88-1.29c1.02,0.19,1.78,0.8,1.81,1.83
		c0.08,2.67,0.03,5.34,0.03,8.08c-0.58,0-1.16,0-1.87,0c-0.02-0.34-0.05-0.69-0.05-1.04c-0.01-1.95-0.01-3.9-0.02-5.85
		c-0.01-0.66-0.11-1.3-0.93-1.41c-0.87-0.11-1.41,0.34-1.61,1.14c-0.14,0.6-0.17,1.24-0.18,1.87c-0.02,1.74-0.01,3.49-0.01,5.29
		c-0.72,0-1.33,0-1.98,0c0-3.23,0-6.39,0-9.64C64.99,29.5,65.53,29.5,66.18,29.5z"/>
	<path class="st0" d="M48.79,39.15c-0.65,0-1.23,0-1.93,0c0-1.86,0-3.67,0-5.48c0-0.59,0.07-1.22-0.09-1.77
		c-0.11-0.4-0.51-0.95-0.85-1c-0.43-0.06-1.12,0.19-1.33,0.53c-0.32,0.52-0.44,1.24-0.46,1.87c-0.06,1.91-0.02,3.83-0.02,5.82
		c-0.68,0-1.28,0-1.96,0c0-3.21,0-6.4,0-9.65c0.58,0,1.13,0,1.71,0c0.04,0.31,0.08,0.6,0.12,0.89c0.06,0,0.15,0.02,0.18-0.01
		c1.06-1.15,2.04-1.46,3.23-0.99c1.27,0.5,1.47,1.59,1.47,2.77c0.01,2.21,0,4.43,0,6.64C48.87,38.87,48.83,38.96,48.79,39.15z"/>
	<path class="st0" d="M59,16.28c-0.85,0.36-1.51,0.73-2.06-0.34c-0.18-0.35-1.02-0.54-1.53-0.48c-0.32,0.04-0.84,0.7-0.8,1.01
		c0.07,0.45,0.49,0.97,0.91,1.21c0.61,0.37,1.36,0.49,2.03,0.77c1.27,0.55,1.87,1.44,1.83,2.67c-0.04,1.23-0.78,2.22-2,2.69
		c-2.29,0.87-4.64-0.2-5.04-2.29c-0.01-0.06,0.02-0.12,0.05-0.27c0.47-0.09,0.98-0.2,1.57-0.31c0.29,1.08,0.91,1.73,2.05,1.65
		c0.68-0.05,1.23-0.33,1.36-1.07c0.12-0.7-0.26-1.14-0.87-1.38c-0.58-0.24-1.18-0.41-1.77-0.63c-1.55-0.6-2.23-1.57-2.1-2.96
		c0.12-1.3,1.11-2.35,2.47-2.62c1.56-0.31,2.89,0.24,3.55,1.5C58.78,15.66,58.86,15.94,59,16.28z"/>
	<path class="st0" d="M91.15,29.47c0.57,0,1.08,0,1.66,0c0.03,0.5,0.06,0.95,0.1,1.56c0.71-0.96,1.3-1.95,2.68-1.76
		c0,0.66,0,1.27,0,1.89c-2.22,0.68-2.49,1.07-2.5,3.51c0,1.42-0.02,2.84-0.03,4.26c0,0.06-0.05,0.11-0.11,0.23
		c-0.55,0-1.13,0-1.79,0C91.15,35.94,91.15,32.76,91.15,29.47z"/>
	<path class="st0" d="M69.42,14.11c0.72,0,1.27,0,1.89,0c0,3.23,0,6.43,0,9.67c-0.63,0-1.22,0-1.89,0
		C69.42,20.55,69.42,17.35,69.42,14.11z"/>
	<path class="st0" d="M61.92,39.14c-0.64,0-1.24,0-1.9,0c0-3.23,0-6.39,0-9.64c0.62,0,1.22,0,1.9,0
		C61.92,32.7,61.92,35.89,61.92,39.14z"/>
	<path class="st0" d="M96.55,29.48c0.67,0,1.25,0,1.89,0c0,3.22,0,6.38,0,9.64c-0.61,0-1.21,0-1.89,0
		C96.55,35.93,96.55,32.74,96.55,29.48z"/>
	<path class="st0" d="M69.37,10.67c0.68,0,1.32,0,2.01,0c0,0.68,0,1.29,0,2c-0.65,0-1.29,0-2.01,0
		C69.37,12.05,69.37,11.42,69.37,10.67z"/>
	<path class="st0" d="M61.95,28.07c-0.64,0-1.24,0-1.94,0c0-0.67,0-1.33,0-2.05c0.63,0,1.24,0,1.94,0
		C61.95,26.68,61.95,27.34,61.95,28.07z"/>
	<path class="st0" d="M98.46,26.04c0.24,2.19,0.13,2.3-1.98,1.98c-0.02-0.3-0.04-0.61-0.05-0.93c-0.01-0.32,0-0.65,0-1.05
		C97.15,26.04,97.81,26.04,98.46,26.04z"/>
</g>
</svg>
